<mxfile host="app.diagrams.net" modified="2023-11-03T00:04:03.092Z" agent="Mozilla/5.0 (Windows NT 10.0; Win64; x64) AppleWebKit/537.36 (KHTML, like Gecko) Chrome/118.0.0.0 Safari/537.36" etag="kN2kV8UC_aZj8Ov__9sV" version="22.0.8" type="github">
  <diagram name="Página-1" id="FTKS--hhsVc2Y8uWOb82">
    <mxGraphModel dx="1647" dy="954" grid="1" gridSize="10" guides="1" tooltips="1" connect="1" arrows="1" fold="1" page="1" pageScale="1" pageWidth="827" pageHeight="1169" math="0" shadow="0">
      <root>
        <mxCell id="0" />
        <mxCell id="1" parent="0" />
        <mxCell id="zZDbCHlokYU__qZz4p6q-1" value="DEPARTAMENTO" style="whiteSpace=wrap;html=1;align=center;fillColor=#000000;fontColor=#FFFFFF;" parent="1" vertex="1">
          <mxGeometry x="620" y="680" width="100" height="40" as="geometry" />
        </mxCell>
        <mxCell id="zZDbCHlokYU__qZz4p6q-2" value="FUNCIONÁRIOS" style="whiteSpace=wrap;html=1;align=center;fontColor=#FFFFFF;strokeColor=#000000;fillColor=#000000;" parent="1" vertex="1">
          <mxGeometry x="340" y="680" width="100" height="40" as="geometry" />
        </mxCell>
        <mxCell id="zZDbCHlokYU__qZz4p6q-3" value="CLIENTE" style="whiteSpace=wrap;html=1;align=center;fillColor=#000000;fontColor=#FFFFFF;" parent="1" vertex="1">
          <mxGeometry x="80" y="440" width="100" height="40" as="geometry" />
        </mxCell>
        <mxCell id="zZDbCHlokYU__qZz4p6q-4" value="FORNECEDOR" style="whiteSpace=wrap;html=1;align=center;fillColor=#000000;fontColor=#FFFFFF;" parent="1" vertex="1">
          <mxGeometry x="620" y="440" width="100" height="40" as="geometry" />
        </mxCell>
        <mxCell id="zZDbCHlokYU__qZz4p6q-6" value="PRODUTO" style="whiteSpace=wrap;html=1;align=center;fillColor=#000000;fontColor=#FFFFFF;" parent="1" vertex="1">
          <mxGeometry x="340" y="440" width="100" height="40" as="geometry" />
        </mxCell>
        <mxCell id="zZDbCHlokYU__qZz4p6q-9" value="COMPRA" style="rounded=1;arcSize=10;whiteSpace=wrap;html=1;align=center;labelBackgroundColor=none;strokeColor=#000000;fillColor=#000000;fontColor=#FFFFFF;" parent="1" vertex="1">
          <mxGeometry x="80" y="680" width="100" height="40" as="geometry" />
        </mxCell>
        <mxCell id="zZDbCHlokYU__qZz4p6q-18" style="edgeStyle=none;rounded=0;orthogonalLoop=1;jettySize=auto;html=1;entryX=1;entryY=1;entryDx=0;entryDy=0;" parent="1" source="zZDbCHlokYU__qZz4p6q-10" target="zZDbCHlokYU__qZz4p6q-3" edge="1">
          <mxGeometry relative="1" as="geometry" />
        </mxCell>
        <mxCell id="zZDbCHlokYU__qZz4p6q-10" value="nome" style="ellipse;whiteSpace=wrap;html=1;align=center;" parent="1" vertex="1">
          <mxGeometry x="180" y="500" width="60" height="30" as="geometry" />
        </mxCell>
        <mxCell id="zZDbCHlokYU__qZz4p6q-20" style="edgeStyle=none;rounded=0;orthogonalLoop=1;jettySize=auto;html=1;entryX=0;entryY=1;entryDx=0;entryDy=0;" parent="1" source="zZDbCHlokYU__qZz4p6q-12" target="zZDbCHlokYU__qZz4p6q-3" edge="1">
          <mxGeometry relative="1" as="geometry" />
        </mxCell>
        <mxCell id="zZDbCHlokYU__qZz4p6q-12" value="cpf" style="ellipse;whiteSpace=wrap;html=1;align=center;" parent="1" vertex="1">
          <mxGeometry x="20" y="500" width="60" height="30" as="geometry" />
        </mxCell>
        <mxCell id="zZDbCHlokYU__qZz4p6q-29" style="edgeStyle=none;rounded=0;orthogonalLoop=1;jettySize=auto;html=1;entryX=0.75;entryY=1;entryDx=0;entryDy=0;" parent="1" source="zZDbCHlokYU__qZz4p6q-13" target="zZDbCHlokYU__qZz4p6q-9" edge="1">
          <mxGeometry relative="1" as="geometry" />
        </mxCell>
        <mxCell id="zZDbCHlokYU__qZz4p6q-13" value="codigo" style="ellipse;whiteSpace=wrap;html=1;align=center;fontStyle=4" parent="1" vertex="1">
          <mxGeometry x="140" y="750" width="70" height="40" as="geometry" />
        </mxCell>
        <mxCell id="zZDbCHlokYU__qZz4p6q-19" style="edgeStyle=none;rounded=0;orthogonalLoop=1;jettySize=auto;html=1;entryX=0.5;entryY=1;entryDx=0;entryDy=0;" parent="1" source="zZDbCHlokYU__qZz4p6q-16" target="zZDbCHlokYU__qZz4p6q-3" edge="1">
          <mxGeometry relative="1" as="geometry" />
        </mxCell>
        <mxCell id="zZDbCHlokYU__qZz4p6q-16" value="codigo" style="ellipse;whiteSpace=wrap;html=1;align=center;fontStyle=4;" parent="1" vertex="1">
          <mxGeometry x="95" y="510" width="70" height="30" as="geometry" />
        </mxCell>
        <mxCell id="zZDbCHlokYU__qZz4p6q-28" style="edgeStyle=none;rounded=0;orthogonalLoop=1;jettySize=auto;html=1;entryX=0.25;entryY=1;entryDx=0;entryDy=0;" parent="1" source="zZDbCHlokYU__qZz4p6q-26" target="zZDbCHlokYU__qZz4p6q-9" edge="1">
          <mxGeometry relative="1" as="geometry" />
        </mxCell>
        <mxCell id="zZDbCHlokYU__qZz4p6q-26" value="quantidadede_&lt;br&gt;produtos" style="ellipse;whiteSpace=wrap;html=1;align=center;dashed=1;" parent="1" vertex="1">
          <mxGeometry x="20" y="745" width="100" height="45" as="geometry" />
        </mxCell>
        <mxCell id="zZDbCHlokYU__qZz4p6q-31" style="edgeStyle=none;rounded=0;orthogonalLoop=1;jettySize=auto;html=1;entryX=0;entryY=0;entryDx=0;entryDy=0;" parent="1" source="zZDbCHlokYU__qZz4p6q-30" target="zZDbCHlokYU__qZz4p6q-3" edge="1">
          <mxGeometry relative="1" as="geometry" />
        </mxCell>
        <mxCell id="zZDbCHlokYU__qZz4p6q-30" value="telefone" style="ellipse;shape=doubleEllipse;margin=3;whiteSpace=wrap;html=1;align=center;" parent="1" vertex="1">
          <mxGeometry x="20" y="370" width="90" height="40" as="geometry" />
        </mxCell>
        <mxCell id="zZDbCHlokYU__qZz4p6q-34" style="edgeStyle=none;rounded=0;orthogonalLoop=1;jettySize=auto;html=1;entryX=0.75;entryY=0;entryDx=0;entryDy=0;" parent="1" source="zZDbCHlokYU__qZz4p6q-33" target="zZDbCHlokYU__qZz4p6q-3" edge="1">
          <mxGeometry relative="1" as="geometry" />
        </mxCell>
        <mxCell id="zZDbCHlokYU__qZz4p6q-39" style="edgeStyle=none;rounded=0;orthogonalLoop=1;jettySize=auto;html=1;entryX=1;entryY=1;entryDx=0;entryDy=0;" parent="1" source="zZDbCHlokYU__qZz4p6q-33" target="zZDbCHlokYU__qZz4p6q-36" edge="1">
          <mxGeometry relative="1" as="geometry" />
        </mxCell>
        <mxCell id="zZDbCHlokYU__qZz4p6q-41" style="edgeStyle=none;rounded=0;orthogonalLoop=1;jettySize=auto;html=1;entryX=0;entryY=1;entryDx=0;entryDy=0;" parent="1" source="zZDbCHlokYU__qZz4p6q-33" target="zZDbCHlokYU__qZz4p6q-38" edge="1">
          <mxGeometry relative="1" as="geometry" />
        </mxCell>
        <mxCell id="zZDbCHlokYU__qZz4p6q-33" value="endereço" style="ellipse;whiteSpace=wrap;html=1;align=center;" parent="1" vertex="1">
          <mxGeometry x="140" y="370" width="100" height="40" as="geometry" />
        </mxCell>
        <mxCell id="zZDbCHlokYU__qZz4p6q-36" value="cep" style="ellipse;whiteSpace=wrap;html=1;align=center;" parent="1" vertex="1">
          <mxGeometry x="60" y="300" width="70" height="40" as="geometry" />
        </mxCell>
        <mxCell id="zZDbCHlokYU__qZz4p6q-37" value="rua" style="ellipse;whiteSpace=wrap;html=1;align=center;" parent="1" vertex="1">
          <mxGeometry x="150" y="300" width="70" height="40" as="geometry" />
        </mxCell>
        <mxCell id="zZDbCHlokYU__qZz4p6q-38" value="numero" style="ellipse;whiteSpace=wrap;html=1;align=center;" parent="1" vertex="1">
          <mxGeometry x="240" y="300" width="70" height="40" as="geometry" />
        </mxCell>
        <mxCell id="zZDbCHlokYU__qZz4p6q-45" style="edgeStyle=none;rounded=0;orthogonalLoop=1;jettySize=auto;html=1;entryX=0.5;entryY=1;entryDx=0;entryDy=0;" parent="1" source="zZDbCHlokYU__qZz4p6q-42" target="zZDbCHlokYU__qZz4p6q-6" edge="1">
          <mxGeometry relative="1" as="geometry" />
        </mxCell>
        <mxCell id="zZDbCHlokYU__qZz4p6q-42" value="descriçao" style="ellipse;whiteSpace=wrap;html=1;align=center;fontStyle=0" parent="1" vertex="1">
          <mxGeometry x="360" y="510" width="60" height="30" as="geometry" />
        </mxCell>
        <mxCell id="zZDbCHlokYU__qZz4p6q-46" style="edgeStyle=none;rounded=0;orthogonalLoop=1;jettySize=auto;html=1;entryX=0;entryY=1;entryDx=0;entryDy=0;" parent="1" source="zZDbCHlokYU__qZz4p6q-43" target="zZDbCHlokYU__qZz4p6q-6" edge="1">
          <mxGeometry relative="1" as="geometry" />
        </mxCell>
        <mxCell id="zZDbCHlokYU__qZz4p6q-43" value="valor" style="ellipse;whiteSpace=wrap;html=1;align=center;" parent="1" vertex="1">
          <mxGeometry x="290" y="510" width="60" height="30" as="geometry" />
        </mxCell>
        <mxCell id="zZDbCHlokYU__qZz4p6q-47" style="edgeStyle=none;rounded=0;orthogonalLoop=1;jettySize=auto;html=1;entryX=1;entryY=1;entryDx=0;entryDy=0;" parent="1" source="zZDbCHlokYU__qZz4p6q-44" target="zZDbCHlokYU__qZz4p6q-6" edge="1">
          <mxGeometry relative="1" as="geometry" />
        </mxCell>
        <mxCell id="zZDbCHlokYU__qZz4p6q-44" value="nome" style="ellipse;whiteSpace=wrap;html=1;align=center;" parent="1" vertex="1">
          <mxGeometry x="430" y="510" width="60" height="30" as="geometry" />
        </mxCell>
        <mxCell id="zZDbCHlokYU__qZz4p6q-49" style="edgeStyle=none;rounded=0;orthogonalLoop=1;jettySize=auto;html=1;entryX=0.5;entryY=0;entryDx=0;entryDy=0;" parent="1" source="zZDbCHlokYU__qZz4p6q-48" target="zZDbCHlokYU__qZz4p6q-6" edge="1">
          <mxGeometry relative="1" as="geometry" />
        </mxCell>
        <mxCell id="zZDbCHlokYU__qZz4p6q-48" value="codigo" style="ellipse;whiteSpace=wrap;html=1;align=center;fontStyle=4" parent="1" vertex="1">
          <mxGeometry x="360" y="380" width="60" height="30" as="geometry" />
        </mxCell>
        <mxCell id="zZDbCHlokYU__qZz4p6q-50" style="edgeStyle=none;rounded=0;orthogonalLoop=1;jettySize=auto;html=1;entryX=0.571;entryY=1;entryDx=0;entryDy=0;entryPerimeter=0;" parent="1" source="zZDbCHlokYU__qZz4p6q-33" target="zZDbCHlokYU__qZz4p6q-37" edge="1">
          <mxGeometry relative="1" as="geometry" />
        </mxCell>
        <mxCell id="zZDbCHlokYU__qZz4p6q-59" style="edgeStyle=none;rounded=0;orthogonalLoop=1;jettySize=auto;html=1;entryX=1;entryY=1;entryDx=0;entryDy=0;" parent="1" source="zZDbCHlokYU__qZz4p6q-52" target="zZDbCHlokYU__qZz4p6q-2" edge="1">
          <mxGeometry relative="1" as="geometry" />
        </mxCell>
        <mxCell id="zZDbCHlokYU__qZz4p6q-52" value="nome" style="ellipse;whiteSpace=wrap;html=1;align=center;" parent="1" vertex="1">
          <mxGeometry x="430" y="750" width="60" height="30" as="geometry" />
        </mxCell>
        <mxCell id="zZDbCHlokYU__qZz4p6q-58" style="edgeStyle=none;rounded=0;orthogonalLoop=1;jettySize=auto;html=1;entryX=0.5;entryY=1;entryDx=0;entryDy=0;" parent="1" source="zZDbCHlokYU__qZz4p6q-53" target="zZDbCHlokYU__qZz4p6q-2" edge="1">
          <mxGeometry relative="1" as="geometry" />
        </mxCell>
        <mxCell id="zZDbCHlokYU__qZz4p6q-53" value="codigo" style="ellipse;whiteSpace=wrap;html=1;align=center;fontStyle=4" parent="1" vertex="1">
          <mxGeometry x="360" y="755" width="60" height="30" as="geometry" />
        </mxCell>
        <mxCell id="zZDbCHlokYU__qZz4p6q-57" style="edgeStyle=none;rounded=0;orthogonalLoop=1;jettySize=auto;html=1;entryX=0;entryY=1;entryDx=0;entryDy=0;" parent="1" source="zZDbCHlokYU__qZz4p6q-54" target="zZDbCHlokYU__qZz4p6q-2" edge="1">
          <mxGeometry relative="1" as="geometry" />
        </mxCell>
        <mxCell id="zZDbCHlokYU__qZz4p6q-54" value="cpf" style="ellipse;whiteSpace=wrap;html=1;align=center;" parent="1" vertex="1">
          <mxGeometry x="290" y="752.5" width="60" height="30" as="geometry" />
        </mxCell>
        <mxCell id="zZDbCHlokYU__qZz4p6q-56" style="edgeStyle=none;rounded=0;orthogonalLoop=1;jettySize=auto;html=1;entryX=0.5;entryY=0;entryDx=0;entryDy=0;" parent="1" target="zZDbCHlokYU__qZz4p6q-2" edge="1">
          <mxGeometry relative="1" as="geometry">
            <mxPoint x="390" y="650" as="sourcePoint" />
          </mxGeometry>
        </mxCell>
        <mxCell id="zZDbCHlokYU__qZz4p6q-60" value="telefone" style="ellipse;shape=doubleEllipse;margin=3;whiteSpace=wrap;html=1;align=center;" parent="1" vertex="1">
          <mxGeometry x="355" y="620" width="70" height="30" as="geometry" />
        </mxCell>
        <mxCell id="zZDbCHlokYU__qZz4p6q-67" style="edgeStyle=none;rounded=0;orthogonalLoop=1;jettySize=auto;html=1;entryX=0;entryY=1;entryDx=0;entryDy=0;" parent="1" source="zZDbCHlokYU__qZz4p6q-62" target="zZDbCHlokYU__qZz4p6q-4" edge="1">
          <mxGeometry relative="1" as="geometry" />
        </mxCell>
        <mxCell id="zZDbCHlokYU__qZz4p6q-62" value="codigo" style="ellipse;whiteSpace=wrap;html=1;align=center;fontStyle=4" parent="1" vertex="1">
          <mxGeometry x="560" y="500" width="60" height="30" as="geometry" />
        </mxCell>
        <mxCell id="zZDbCHlokYU__qZz4p6q-68" style="edgeStyle=none;rounded=0;orthogonalLoop=1;jettySize=auto;html=1;entryX=1;entryY=1;entryDx=0;entryDy=0;" parent="1" source="zZDbCHlokYU__qZz4p6q-63" target="zZDbCHlokYU__qZz4p6q-4" edge="1">
          <mxGeometry relative="1" as="geometry" />
        </mxCell>
        <mxCell id="zZDbCHlokYU__qZz4p6q-63" value="nome" style="ellipse;whiteSpace=wrap;html=1;align=center;" parent="1" vertex="1">
          <mxGeometry x="720" y="500" width="60" height="30" as="geometry" />
        </mxCell>
        <mxCell id="zZDbCHlokYU__qZz4p6q-69" style="edgeStyle=none;rounded=0;orthogonalLoop=1;jettySize=auto;html=1;entryX=0.5;entryY=1;entryDx=0;entryDy=0;" parent="1" source="zZDbCHlokYU__qZz4p6q-64" target="zZDbCHlokYU__qZz4p6q-4" edge="1">
          <mxGeometry relative="1" as="geometry" />
        </mxCell>
        <mxCell id="zZDbCHlokYU__qZz4p6q-64" value="telefone" style="ellipse;shape=doubleEllipse;margin=3;whiteSpace=wrap;html=1;align=center;" parent="1" vertex="1">
          <mxGeometry x="635" y="520" width="70" height="30" as="geometry" />
        </mxCell>
        <mxCell id="zZDbCHlokYU__qZz4p6q-74" style="edgeStyle=none;rounded=0;orthogonalLoop=1;jettySize=auto;html=1;entryX=0.25;entryY=1;entryDx=0;entryDy=0;" parent="1" source="zZDbCHlokYU__qZz4p6q-70" target="zZDbCHlokYU__qZz4p6q-1" edge="1">
          <mxGeometry relative="1" as="geometry" />
        </mxCell>
        <mxCell id="zZDbCHlokYU__qZz4p6q-70" value="descriçao" style="ellipse;whiteSpace=wrap;html=1;align=center;" parent="1" vertex="1">
          <mxGeometry x="600" y="745" width="60" height="30" as="geometry" />
        </mxCell>
        <mxCell id="zZDbCHlokYU__qZz4p6q-73" style="edgeStyle=none;rounded=0;orthogonalLoop=1;jettySize=auto;html=1;entryX=0.75;entryY=1;entryDx=0;entryDy=0;" parent="1" source="zZDbCHlokYU__qZz4p6q-72" target="zZDbCHlokYU__qZz4p6q-1" edge="1">
          <mxGeometry relative="1" as="geometry" />
        </mxCell>
        <mxCell id="zZDbCHlokYU__qZz4p6q-72" value="codigo" style="ellipse;whiteSpace=wrap;html=1;align=center;fontStyle=4" parent="1" vertex="1">
          <mxGeometry x="680" y="745" width="60" height="30" as="geometry" />
        </mxCell>
      </root>
    </mxGraphModel>
  </diagram>
</mxfile>
